<svg width="150" height="42" viewBox="0 0 150 42" fill="none" xmlns="http://www.w3.org/2000/svg">
<g filter="url(#filter0_d_8620_12501)">
<g filter="url(#filter1_dd_8620_12501)">
<g clip-path="url(#clip0_8620_12501)">
<rect x="4" y="2" width="32" height="32" rx="8" fill="white"/>
<rect x="4" y="2" width="32" height="32" rx="8" fill="url(#paint0_linear_8620_12501)"/>
<path fill-rule="evenodd" clip-rule="evenodd" d="M20 4.03885C12.2895 4.03885 6.03884 10.2895 6.03884 18C6.03884 25.7106 12.2895 31.9612 20 31.9612C27.7105 31.9612 33.9612 25.7106 33.9612 18C33.9612 10.2895 27.7105 4.03885 20 4.03885ZM5.96117 18C5.96117 10.2466 12.2466 3.96118 20 3.96118C27.7534 3.96118 34.0388 10.2466 34.0388 18C34.0388 25.7535 27.7534 32.0389 20 32.0389C12.2466 32.0389 5.96117 25.7535 5.96117 18Z" fill="#D0D5DD"/>
<path fill-rule="evenodd" clip-rule="evenodd" d="M20 14.0779C17.8338 14.0779 16.0777 15.834 16.0777 18.0002C16.0777 20.1665 17.8338 21.9226 20 21.9226C22.1663 21.9226 23.9223 20.1665 23.9223 18.0002C23.9223 15.834 22.1663 14.0779 20 14.0779ZM16 18.0002C16 15.7911 17.7909 14.0002 20 14.0002C22.2092 14.0002 24 15.7911 24 18.0002C24 20.2094 22.2092 22.0002 20 22.0002C17.7909 22.0002 16 20.2094 16 18.0002Z" fill="#D0D5DD"/>
<path fill-rule="evenodd" clip-rule="evenodd" d="M20 15.3201C18.5201 15.3201 17.3204 16.5198 17.3204 17.9997C17.3204 19.4796 18.5201 20.6793 20 20.6793C21.4799 20.6793 22.6796 19.4796 22.6796 17.9997C22.6796 16.5198 21.4799 15.3201 20 15.3201ZM17.2427 17.9997C17.2427 16.4769 18.4772 15.2424 20 15.2424C21.5228 15.2424 22.7573 16.4769 22.7573 17.9997C22.7573 19.5225 21.5228 20.757 20 20.757C18.4772 20.757 17.2427 19.5225 17.2427 17.9997Z" fill="#D0D5DD"/>
<path d="M19.9612 2H20.0388V34H19.9612V2Z" fill="#D0D5DD"/>
<path d="M36 17.9609L36 18.0386L4 18.0386L4 17.9609L36 17.9609Z" fill="#D0D5DD"/>
<path d="M30.602 2H30.6796V34H30.602V2Z" fill="#D0D5DD"/>
<path d="M14.6408 2H14.7184V34H14.6408V2Z" fill="#D0D5DD"/>
<path d="M25.2816 2H25.3592V34H25.2816V2Z" fill="#D0D5DD"/>
<path d="M9.32037 2H9.39804V34H9.32037V2Z" fill="#D0D5DD"/>
<path d="M36 28.6016L36 28.6792L4 28.6792L4 28.6016L36 28.6016Z" fill="#D0D5DD"/>
<path d="M36 12.6406L36 12.7183L4 12.7183L4 12.6406L36 12.6406Z" fill="#D0D5DD"/>
<path d="M36 23.2812L36 23.3589L4 23.3589L4 23.2812L36 23.2812Z" fill="#D0D5DD"/>
<path d="M36 7.32031L36 7.39798L4 7.39798L4 7.32031L36 7.32031Z" fill="#D0D5DD"/>
<g filter="url(#filter2_dd_8620_12501)">
<circle cx="20" cy="18" r="8" fill="url(#paint1_linear_8620_12501)"/>
</g>
<g filter="url(#filter3_b_8620_12501)">
<path d="M4 18H36V21.2C36 25.6804 36 27.9206 35.1281 29.6319C34.3611 31.1372 33.1372 32.3611 31.6319 33.1281C29.9206 34 27.6804 34 23.2 34H16.8C12.3196 34 10.0794 34 8.36808 33.1281C6.86278 32.3611 5.63893 31.1372 4.87195 29.6319C4 27.9206 4 25.6804 4 21.2V18Z" fill="white" fill-opacity="0.2"/>
</g>
</g>
<rect x="4.15" y="2.15" width="31.7" height="31.7" rx="7.85" stroke="#D0D5DD" stroke-width="0.3"/>
</g>
<path d="M55.0037 10.4545H57.6386V19.9574C57.6386 20.999 57.3924 21.9152 56.9 22.7059C56.4123 23.4967 55.7258 24.1146 54.8403 24.5596C53.9549 25 52.9204 25.2202 51.7366 25.2202C50.5482 25.2202 49.5113 25 48.6258 24.5596C47.7404 24.1146 47.0539 23.4967 46.5662 22.7059C46.0785 21.9152 45.8347 20.999 45.8347 19.9574V10.4545H48.4696V19.7372C48.4696 20.3433 48.6022 20.883 48.8673 21.3565C49.1372 21.83 49.516 22.2017 50.0037 22.4716C50.4914 22.7367 51.069 22.8693 51.7366 22.8693C52.4043 22.8693 52.9819 22.7367 53.4696 22.4716C53.962 22.2017 54.3408 21.83 54.606 21.3565C54.8711 20.883 55.0037 20.3433 55.0037 19.7372V10.4545Z" fill="#101828"/>
<path d="M62.96 18.6079V25H60.389V14.0909H62.8464V15.9446H62.9742C63.2252 15.3338 63.6253 14.8485 64.1745 14.4886C64.7285 14.1288 65.4127 13.9488 66.2271 13.9488C66.9799 13.9488 67.6357 14.1098 68.1944 14.4318C68.7578 14.7538 69.1934 15.2202 69.5012 15.8309C69.8137 16.4417 69.9676 17.1827 69.9629 18.054V25H67.3918V18.4517C67.3918 17.7225 67.2024 17.152 66.8236 16.74C66.4496 16.3281 65.9311 16.1221 65.2682 16.1221C64.8184 16.1221 64.4183 16.2216 64.068 16.4204C63.7223 16.6146 63.4501 16.8963 63.2512 17.2656C63.0571 17.6349 62.96 18.0824 62.96 18.6079Z" fill="#101828"/>
<path d="M78.0239 14.0909V16.0795H71.7526V14.0909H78.0239ZM73.3009 11.4773H75.8719V21.7187C75.8719 22.0644 75.924 22.3295 76.0282 22.5142C76.1371 22.6941 76.2791 22.8172 76.4543 22.8835C76.6295 22.9498 76.8236 22.9829 77.0367 22.9829C77.1977 22.9829 77.3445 22.9711 77.4771 22.9474C77.6144 22.9238 77.7185 22.9024 77.7896 22.8835L78.2228 24.8934C78.0855 24.9408 77.889 24.9929 77.6333 25.0497C77.3824 25.1065 77.0746 25.1397 76.71 25.1491C76.0661 25.1681 75.4861 25.071 74.97 24.8579C74.4539 24.6401 74.0443 24.304 73.7413 23.8494C73.443 23.3949 73.2962 22.8267 73.3009 22.1449V11.4773Z" fill="#101828"/>
<path d="M80.1741 25V14.0909H82.7452V25H80.1741ZM81.4668 12.5426C81.0596 12.5426 80.7092 12.4077 80.4156 12.1378C80.1221 11.8631 79.9753 11.5341 79.9753 11.1506C79.9753 10.7623 80.1221 10.4332 80.4156 10.1633C80.7092 9.88871 81.0596 9.7514 81.4668 9.7514C81.8787 9.7514 82.2291 9.88871 82.5179 10.1633C82.8115 10.4332 82.9582 10.7623 82.9582 11.1506C82.9582 11.5341 82.8115 11.8631 82.5179 12.1378C82.2291 12.4077 81.8787 12.5426 81.4668 12.5426Z" fill="#101828"/>
<path d="M90.8364 14.0909V16.0795H84.5651V14.0909H90.8364ZM86.1134 11.4773H88.6844V21.7187C88.6844 22.0644 88.7365 22.3295 88.8407 22.5142C88.9496 22.6941 89.0916 22.8172 89.2668 22.8835C89.442 22.9498 89.6362 22.9829 89.8492 22.9829C90.0102 22.9829 90.157 22.9711 90.2896 22.9474C90.4269 22.9238 90.531 22.9024 90.6021 22.8835L91.0353 24.8934C90.898 24.9408 90.7015 24.9929 90.4458 25.0497C90.1949 25.1065 89.8871 25.1397 89.5225 25.1491C88.8786 25.1681 88.2986 25.071 87.7825 24.8579C87.2664 24.6401 86.8568 24.304 86.5538 23.8494C86.2555 23.3949 86.1087 22.8267 86.1134 22.1449V11.4773Z" fill="#101828"/>
<path d="M95.792 10.4545V25H93.221V10.4545H95.792Z" fill="#101828"/>
<path d="M103.265 25.2131C102.172 25.2131 101.227 24.9858 100.432 24.5312C99.6409 24.072 99.0325 23.4233 98.6063 22.5852C98.1802 21.7424 97.9671 20.7505 97.9671 19.6094C97.9671 18.4872 98.1802 17.5024 98.6063 16.6548C99.0372 15.8025 99.6385 15.1397 100.41 14.6662C101.182 14.188 102.089 13.9488 103.13 13.9488C103.803 13.9488 104.437 14.0577 105.034 14.2756C105.635 14.4886 106.166 14.8201 106.625 15.2699C107.089 15.7197 107.453 16.2926 107.719 16.9886C107.984 17.6799 108.116 18.5038 108.116 19.4602V20.2486H99.1745V18.5156H105.652C105.647 18.0232 105.541 17.5852 105.332 17.2017C105.124 16.8134 104.833 16.508 104.459 16.2855C104.089 16.063 103.658 15.9517 103.166 15.9517C102.64 15.9517 102.179 16.0795 101.781 16.3352C101.383 16.5862 101.073 16.9176 100.851 17.3295C100.633 17.7367 100.522 18.1842 100.517 18.6719V20.1846C100.517 20.8191 100.633 21.3636 100.865 21.8182C101.097 22.268 101.421 22.6136 101.838 22.8551C102.255 23.0918 102.742 23.2102 103.301 23.2102C103.675 23.2102 104.014 23.1581 104.317 23.054C104.62 22.9451 104.882 22.7864 105.105 22.5781C105.327 22.3698 105.496 22.1117 105.609 21.804L108.01 22.0738C107.858 22.7083 107.569 23.2623 107.143 23.7358C106.722 24.2045 106.182 24.5691 105.524 24.8295C104.866 25.0852 104.113 25.2131 103.265 25.2131Z" fill="#101828"/>
<path d="M114.34 25.1917C113.483 25.1917 112.716 24.9716 112.038 24.5312C111.361 24.0909 110.826 23.4517 110.433 22.6136C110.04 21.7756 109.844 20.7576 109.844 19.5596C109.844 18.3475 110.043 17.3248 110.44 16.4915C110.843 15.6534 111.385 15.0213 112.067 14.5952C112.749 14.1643 113.509 13.9488 114.347 13.9488C114.986 13.9488 115.511 14.0577 115.923 14.2756C116.335 14.4886 116.662 14.7467 116.904 15.0497C117.145 15.348 117.332 15.6297 117.465 15.8949H117.571V10.4545H120.149V25H117.621V23.2812H117.465C117.332 23.5464 117.14 23.8281 116.889 24.1264C116.638 24.42 116.307 24.6709 115.895 24.8792C115.483 25.0876 114.965 25.1917 114.34 25.1917ZM115.057 23.0824C115.601 23.0824 116.065 22.9356 116.449 22.642C116.833 22.3437 117.124 21.9294 117.323 21.3991C117.521 20.8688 117.621 20.2509 117.621 19.5454C117.621 18.8399 117.521 18.2268 117.323 17.7059C117.128 17.1851 116.84 16.7803 116.456 16.4915C116.077 16.2026 115.611 16.0582 115.057 16.0582C114.484 16.0582 114.006 16.2074 113.622 16.5057C113.239 16.804 112.95 17.2159 112.756 17.7415C112.562 18.267 112.465 18.8684 112.465 19.5454C112.465 20.2273 112.562 20.8357 112.756 21.3707C112.955 21.901 113.246 22.3201 113.629 22.6278C114.018 22.9309 114.494 23.0824 115.057 23.0824Z" fill="#101828"/>
<path d="M137.133 10.4545H139.768V19.9574C139.768 20.999 139.521 21.9152 139.029 22.7059C138.541 23.4967 137.855 24.1146 136.969 24.5596C136.084 25 135.049 25.2202 133.866 25.2202C132.677 25.2202 131.64 25 130.755 24.5596C129.869 24.1146 129.183 23.4967 128.695 22.7059C128.207 21.9152 127.964 20.999 127.964 19.9574V10.4545H130.599V19.7372C130.599 20.3433 130.731 20.883 130.996 21.3565C131.266 21.83 131.645 22.2017 132.133 22.4716C132.62 22.7367 133.198 22.8693 133.866 22.8693C134.533 22.8693 135.111 22.7367 135.599 22.4716C136.091 22.2017 136.47 21.83 136.735 21.3565C137 20.883 137.133 20.3433 137.133 19.7372V10.4545Z" fill="#101828"/>
<path d="M145.266 10.4545V25H142.632V10.4545H145.266Z" fill="#101828"/>
</g>
<defs>
<filter id="filter0_d_8620_12501" x="0" y="2" width="150" height="40" filterUnits="userSpaceOnUse" color-interpolation-filters="sRGB">
<feFlood flood-opacity="0" result="BackgroundImageFix"/>
<feColorMatrix in="SourceAlpha" type="matrix" values="0 0 0 0 0 0 0 0 0 0 0 0 0 0 0 0 0 0 127 0" result="hardAlpha"/>
<feOffset dy="4"/>
<feGaussianBlur stdDeviation="2"/>
<feComposite in2="hardAlpha" operator="out"/>
<feColorMatrix type="matrix" values="0 0 0 0 0 0 0 0 0 0 0 0 0 0 0 0 0 0 0.25 0"/>
<feBlend mode="normal" in2="BackgroundImageFix" result="effect1_dropShadow_8620_12501"/>
<feBlend mode="normal" in="SourceGraphic" in2="effect1_dropShadow_8620_12501" result="shape"/>
</filter>
<filter id="filter1_dd_8620_12501" x="1" y="0" width="38" height="38" filterUnits="userSpaceOnUse" color-interpolation-filters="sRGB">
<feFlood flood-opacity="0" result="BackgroundImageFix"/>
<feColorMatrix in="SourceAlpha" type="matrix" values="0 0 0 0 0 0 0 0 0 0 0 0 0 0 0 0 0 0 127 0" result="hardAlpha"/>
<feOffset dy="1"/>
<feGaussianBlur stdDeviation="1"/>
<feColorMatrix type="matrix" values="0 0 0 0 0.0627451 0 0 0 0 0.0941176 0 0 0 0 0.156863 0 0 0 0.06 0"/>
<feBlend mode="normal" in2="BackgroundImageFix" result="effect1_dropShadow_8620_12501"/>
<feColorMatrix in="SourceAlpha" type="matrix" values="0 0 0 0 0 0 0 0 0 0 0 0 0 0 0 0 0 0 127 0" result="hardAlpha"/>
<feOffset dy="1"/>
<feGaussianBlur stdDeviation="1.5"/>
<feColorMatrix type="matrix" values="0 0 0 0 0.0627451 0 0 0 0 0.0941176 0 0 0 0 0.156863 0 0 0 0.1 0"/>
<feBlend mode="normal" in2="effect1_dropShadow_8620_12501" result="effect2_dropShadow_8620_12501"/>
<feBlend mode="normal" in="SourceGraphic" in2="effect2_dropShadow_8620_12501" result="shape"/>
</filter>
<filter id="filter2_dd_8620_12501" x="9" y="8" width="22" height="22" filterUnits="userSpaceOnUse" color-interpolation-filters="sRGB">
<feFlood flood-opacity="0" result="BackgroundImageFix"/>
<feColorMatrix in="SourceAlpha" type="matrix" values="0 0 0 0 0 0 0 0 0 0 0 0 0 0 0 0 0 0 127 0" result="hardAlpha"/>
<feOffset dy="1"/>
<feGaussianBlur stdDeviation="1"/>
<feColorMatrix type="matrix" values="0 0 0 0 0.0627451 0 0 0 0 0.0941176 0 0 0 0 0.156863 0 0 0 0.06 0"/>
<feBlend mode="normal" in2="BackgroundImageFix" result="effect1_dropShadow_8620_12501"/>
<feColorMatrix in="SourceAlpha" type="matrix" values="0 0 0 0 0 0 0 0 0 0 0 0 0 0 0 0 0 0 127 0" result="hardAlpha"/>
<feOffset dy="1"/>
<feGaussianBlur stdDeviation="1.5"/>
<feColorMatrix type="matrix" values="0 0 0 0 0.0627451 0 0 0 0 0.0941176 0 0 0 0 0.156863 0 0 0 0.1 0"/>
<feBlend mode="normal" in2="effect1_dropShadow_8620_12501" result="effect2_dropShadow_8620_12501"/>
<feBlend mode="normal" in="SourceGraphic" in2="effect2_dropShadow_8620_12501" result="shape"/>
</filter>
<filter id="filter3_b_8620_12501" x="-1" y="13" width="42" height="26" filterUnits="userSpaceOnUse" color-interpolation-filters="sRGB">
<feFlood flood-opacity="0" result="BackgroundImageFix"/>
<feGaussianBlur in="BackgroundImageFix" stdDeviation="2.5"/>
<feComposite in2="SourceAlpha" operator="in" result="effect1_backgroundBlur_8620_12501"/>
<feBlend mode="normal" in="SourceGraphic" in2="effect1_backgroundBlur_8620_12501" result="shape"/>
</filter>
<linearGradient id="paint0_linear_8620_12501" x1="20" y1="2" x2="20" y2="34" gradientUnits="userSpaceOnUse">
<stop stop-color="white"/>
<stop offset="1" stop-color="#D0D5DD"/>
</linearGradient>
<linearGradient id="paint1_linear_8620_12501" x1="16" y1="26" x2="24" y2="10" gradientUnits="userSpaceOnUse">
<stop stop-color="#53389E"/>
<stop offset="1" stop-color="#6941C6"/>
</linearGradient>
<clipPath id="clip0_8620_12501">
<rect x="4" y="2" width="32" height="32" rx="8" fill="white"/>
</clipPath>
</defs>
</svg>
